<?xml version="1.0"?>
<svg xmlns:rdf="http://www.w3.org/1999/02/22-rdf-syntax-ns#" xmlns="http://www.w3.org/2000/svg" xmlns:cc="http://creativecommons.org/ns#" xmlns:dc="http://purl.org/dc/elements/1.1/" xmlns:svg="http://www.w3.org/2000/svg" id="svg2" viewBox="0 0 304 97.375" version="1.1">
  <g id="layer1" transform="translate(-225.08 -670.45)">
    <path id="path2830" d="m297.94 767.23c-24.839-2.0122-44.754-5.8882-56.047-10.909-8.9667-3.9861-11.073-6.4827-11.346-13.449-0.49528-12.616-0.17956-13.9 4.4193-17.972 2.4245-2.1465 4.4082-4.3097 4.4082-4.8072 0-0.49749-1.7003-1.4972-3.7784-2.2217-3.2356-1.1279-3.7784-1.9557-3.7784-5.7618 0-3.2995-0.77737-4.954-3.0171-6.4216-4.4379-2.9078-4.9355-6.6162-1.3667-10.185 1.6554-1.6554 4.0274-2.9872 5.2712-2.9594 1.6709 0.0373 1.3571 0.541-1.2022 1.9294-1.905 1.0335-3.4636 2.4169-3.4636 3.0743 0 0.65739 1.5586 1.5368 3.4636 1.9542 1.905 0.41741 4.179 0.97987 5.0535 1.2499 2.5804 0.79686 0.43294-6.0526-2.6674-8.5082-8.2719-6.5514-8.4018-6.923-4.1504-11.866 2.4757-2.8781 4.2091-3.5301 10.618-3.9937 6.9271-0.50106 7.9684-0.24471 10.896 2.6825 3.9066 3.9066 4.0714 6.2945 0.66894 9.6969l-2.5675 2.5675 3.726 1.2989c3.8965 1.3583 5.786 4.1734 4.3552 6.4885-0.54067 0.87481-0.0562 1.0589 1.3584 0.51608 1.2094-0.46408 3.0026-0.84377 3.985-0.84377 2.0988 0 2.5636-9.4467 0.52672-10.706-2.2584-1.3958-1.4312-8.0061 1.1767-9.4018 3.1442-1.6827 13.395-1.6827 16.539 0 2.9684 1.5886 3.1587 5.8861 0.39574 8.9391-1.6315 1.8028-1.8615 3.6868-1.1476 9.4008l0.89286 7.1462 8.5987-0.79917c13.47-1.2519 14.556-2.2077 10.51-9.2559-2.984-5.1992-1.423-11.526 4.4869-18.185 4.7532-5.3562 5.0326-5.4766 12.705-5.4766 7.559 0 8.0002 0.17973 12.109 4.9329 3.5681 4.1277 4.2641 5.9194 4.2641 10.977 0 4.9641-0.69825 6.839-3.9089 10.496l-3.9089 4.452h6.4278c6.2854 0 6.4278-0.0827 6.4278-3.7341 0-3.8496 2.0933-5.6785 8.7428-7.6383l3.2222-0.94972-4.1922-1.5535c-6.8564-2.5407-7.9443-10.353-1.7686-12.701 5.391-2.0497 17.603-1.6327 21.2 0.72386 2.6326 1.725 3.0865 2.7601 2.4036 5.4813-1.1199 4.4621-2.959 6.5175-5.8316 6.5175-3.8605 0-2.685 1.7439 2.7 4.0057 3.9221 1.6474 5.2104 2.9734 5.8123 5.9825l0.77319 3.866h17.822c15.641 0 19.744 0.47318 33.534 3.8667 19.528 4.8057 26.467 6.0537 41.271 7.4216 11.43 1.0562 11.778 1.0089 14.799-2.0119 3.6311-3.6311 3.7863-4.2385 1.0833-4.2385-3.9858 0-15.057-3.9173-18.003-6.37-4.9356-4.109-4.5169-8.2932 1.2479-12.469 7.1538-5.1822 15.839-6.9696 33.879-6.9727 16.435-0.003 22.421 1.2305 28.26 5.8234 6.4908 5.1057 2.8672 13.491-7.5075 17.372-3.8457 1.4389-8.1045 2.6161-9.464 2.6161-2.909 0-3.1601 1.0652-0.70967 3.0098 3.1554 2.5041 3.5859 6.6762 0.94632 9.1712-1.3401 1.2666-2.6424 3.4117-2.8939 4.7667-0.67364 3.6285-4.8201 4.2353-24.374 3.5667-18.729-0.64039-38.318-3.2718-62.974-8.4597-17.114-3.601-17.399-3.6382-16.482-2.1548-2.5245 1.3629-1.74 1.5828-4.9292 2.025-1.3854-0.39062-3.6525 0.14905-5.0379 1.1992-2.2473 1.7035-2.2812 1.9138-0.31487 1.9495 1.2122 0.022 2.2041-0.5649 2.2041-1.3043 0-1.7209 4.9231-0.27098 7.8717 2.3183 1.2122 1.0645 2.2041 2.9989 2.2041 4.2987s0.85014 2.6895 1.8892 3.0882c3.0769 1.1807 2.6225 18.076-0.59623 22.168-4.4349 5.6381-29.562 12.307-55.45 14.716-13.316 1.2392-40.127 1.5084-52.268 0.52491zm70.531-4.6267c5.5417-0.99786 14.185-3.067 19.207-4.5981l9.1312-2.7838-0.12557-5.2301c-0.10758-4.4828-0.26959-4.7802-1.1339-2.0814-0.97375 3.0405-1.0127 3.0508-1.1339 0.29797-0.12342-2.8016-0.20689-2.8167-4.8486-0.87621-10.913 4.5624-59.854 9.7686-71.425 7.5979-3.6672-0.68797-4.4587-1.3853-4.4587-3.9281 0-3.8278-1.1772-3.8803-5.7796-0.2578-2.8311 2.2284-5.2219 2.833-11.19 2.8301-10.349-0.005-33.986-2.7769-42.425-4.9749-3.8051-0.9911-7.7257-1.9766-8.7124-2.1901-2.2563-0.48811-3.1872 5.9907-1.2041 8.3802 1.8144 2.1862 18.044 6.4706 30.897 8.1562 5.5417 0.72678 11.776 1.5582 13.854 1.8477 8.8415 1.2315 69.67-0.4471 79.347-2.1896zm-123.86-13.43c0-1.7318 0.28588-2.4402 0.63527-1.5744 0.34939 0.86589 0.34939 2.2828 0 3.1487-0.34939 0.86589-0.63527 0.15744-0.63527-1.5743zm-2.7178 0c0-2.7708-0.56676-5.0379-1.2595-5.0379-1.3934 0-1.7527 7.9033-0.41982 9.2362 1.4708 1.4708 1.6793 0.94958 1.6793-4.1982zm117.76 1.995c11.87-0.97752 26.274-4.2387 34.321-7.7704 3.6367-1.5962 6.6122-3.103 6.6122-3.3484 0-0.24538-1.9837-0.21456-4.4082 0.0685-2.4245 0.28305-4.4082-0.002-4.4082-0.63314 0-1.6335-14.591 0.27711-21.411 2.8036-3.1172 1.1548-10.875 2.7286-17.24 3.4973-9.348 1.129-11.686 1.831-12.162 3.6521-0.64884 2.4811-5.2087 3.0731-6.5801 0.85418-0.47598-0.77016-0.0844-1.895 0.87027-2.4997 1.0819-0.68527-1.7191-1.1066-7.4361-1.1187-8.3679-0.0176-9.2643 0.2291-10.227 2.8145-1.0152 2.7259-0.73786 2.8578 7.2826 3.4636 4.5859 0.34635 12.305 0.25012 17.154-0.21386 4.849-0.46397 12.784-1.1703 17.633-1.5696v-0.00001zm40.807-0.42061c0.24472 4.2966 2.6468 2.1306 2.7935-2.519 0.14832-4.7006 0.15358-4.7051 1.1105-0.94461 1.1817 4.6441 1.5604 1.1899 0.46826-4.2709-0.63473-3.1736-1.1329-3.6725-2.519-2.5222-0.95025 0.78864-1.7676 2.6397-1.8163 4.1135-0.0864 2.6136-0.11524 2.6176-1.171 0.16065-0.79114-1.8411-1.0725-0.82428-1.0454 3.7784 0.0292 4.9672 0.25002 5.6323 1.0454 3.1487 0.67226-2.0991 1.0502-2.414 1.1339-0.94461zm-96.951-1.0566c9.8318-8.2729-0.064-25.157-12.069-20.593-8.7304 3.3193-10.916 13.561-4.3042 20.172 4.8255 4.8255 10.952 4.983 16.373 0.4209zm-65.767-5.8706c-0.3002-1.5586-0.54582-0.28338-0.54582 2.8338s0.24562 4.3924 0.54582 2.8338c0.30021-1.5586 0.30021-4.109 0-5.6676zm46.971 5.6047c0-0.55417-0.51878-1.546-1.1528-2.2041-0.63405-0.65808-1.3425-2.6134-1.5743-4.3452-0.50045-3.7383-4.1447-3.6822-7.7126 0.11864-1.7328 1.846-4.006 2.4003-9.8437 2.4003-8.1947 0-12.463-1.5248-12.463-4.4525 0-1.0147 0.4723-1.8449 1.0496-1.8449 0.57727 0 1.0876-0.70846 1.134-1.5744 0.0465-0.86589 0.38205-5.6834 0.7458-10.706 0.36376-5.0222 0.27853-9.1235-0.18939-9.114-5.2189 0.10549-6.4064 1.6158-6.7744 8.6157-0.33692 6.4091-0.67034 7.1524-3.38 7.5356-3.5021 0.49517-5.134-1.5401-5.1611-6.4366-0.0188-3.3983-0.10113-3.439-3.0481-1.508-3.6403 2.3852-5.2427 7.6599-3.1084 10.232 3.1769 3.828 12.472 8.1201 23.9 11.037 11.561 2.9505 27.578 4.2553 27.578 2.2466zm32.746-4.1046c0-0.65183-0.56676-1.1852-1.2595-1.1852-0.69271 0-1.2595 0.8836-1.2595 1.9636s0.56677 1.6133 1.2595 1.1851c0.69271-0.42812 1.2595-1.3117 1.2595-1.9635zm30.857-1.1852c2.154-0.92559 2.1996-1.0952 0.31486-1.171-1.3349-0.0536-2.2041-1.0818-2.2041-2.6075 0-2.3679-0.83965-2.519-14.001-2.519-13.905 0-13.996 0.0195-13.242 2.8338 0.41769 1.5586 0.76718 3.2589 0.77664 3.7784 0.0237 1.3029 25.242 1.0228 28.355-0.31487zm-75.954-2.4409c1.7067-1.3425 4.5634-2.8074 6.3482-3.2554 1.7848-0.44797 3.5456-1.9636 3.9129-3.368 0.59165-2.2625 0.22841-2.4656-3.1871-1.7825-2.1202 0.42403-4.6342 0.77098-5.5867 0.77098-0.95248 0-1.7318 1.0723-1.7318 2.3829 0 2.1184-0.90373 2.3542-8.1423 2.1249-5.6716-0.17969-8.3309 0.23365-8.764 1.3622-1.6838 4.3878 12.023 5.7983 17.151 1.7649zm-14.39 0.14c-1.1994-0.4754 1.6153-0.96983 6.2549-1.0988 5.5911-0.15535 7.8128 0.15945 6.5888 0.93359-2.1227 1.3426-9.6297 1.4391-12.844 0.16516zm112.1-2.2735c1.4577-1.4578 1.15-1.723-1.9984-1.723-2.6872 0-3.9083 0.71443-4.3937 2.5707-0.56269 2.1517-0.23695 2.4325 1.9984 1.723 1.4689-0.46621 3.4461-1.623 4.3938-2.5707zm-13.256-0.74128c-2.0374-0.98261-3.6302-0.98261-5.6676 0-2.4881 1.2-2.1424 1.3667 2.8338 1.3667s5.3219-0.16673 2.8338-1.3667zm45.341-3.2578c1.2122-1.0411 2.1682-2.7968 2.1242-3.9017-0.0471-1.185-0.59011-0.73006-1.3242 1.1095-0.7383 1.8502-1.6022 2.5706-2.1242 1.7713-0.61346-0.93913-2.0242-0.8518-4.6584 0.28838-3.4024 1.4727-3.489 1.6411-0.87027 1.6923 1.869 0.0365 2.587 0.5764 2.0095 1.5109-1.0607 1.7162 1.473 0.42378 4.8433-2.4706zm-133.82-9.8358v-10.559h-5.0379-5.0379v10.613c0 11.402 0.53868 12.222 7.242 11.015 2.6728-0.48136 2.8338-1.1101 2.8338-11.069zm-8.5241-5.5208c0-2.4245 0.2592-3.4163 0.57599-2.2041 0.31678 1.2122 0.31678 3.1959 0 4.4082-0.31679 1.2122-0.57599 0.22041-0.57599-2.2041zm55.125 12.469c0-4.1933-0.80483-5.9687-4.2822-9.4461-3.5749-3.5749-5.1994-4.2822-9.8351-4.2822-3.0541 0-6.5469 0.72682-7.7617 1.6152-1.9088 1.3958-1.536 1.551 2.7448 1.1428 2.9882-0.28497 6.5396 0.34774 8.951 1.5947 4.2365 2.1908 8.9112 8.6561 8.9191 12.335 0.003 1.2122 0.2881 2.2041 0.63445 2.2041 0.34636 0 0.62974-2.3237 0.62974-5.1638zm74.309 2.1532c10.428-2.1888 15.225-6.1911 12.671-10.573-1.1276-1.9344-1.2632-1.8844-1.2975 0.47837-0.0893 6.1521-5.6361 7.751-22.709 6.5459-1.7318-0.12224-15.476-0.1134-30.542 0.0197-25.158 0.22216-27.394 0.42182-27.393 2.446 0.00063 2.0446 2.3475 2.197 32.432 2.106 17.837-0.054 34.414-0.51448 36.839-1.0234v-0.00005zm-106.74-4.0953c1.2122-0.34132 2.2041-1.0676 2.2041-1.614 0-0.54636-2.8338-0.43306-6.2974 0.25177s-6.2974 1.7818-6.2974 2.4378c0 1.0792 4.3295 0.63098 10.391-1.0756zm-35.826-5.1739c-0.32178-5.0149-0.79129-5.9825-2.9028-5.9825-2.072 0-2.5479 0.89396-2.6819 5.0379-0.1972 6.0977 0.21645 6.9271 3.455 6.9271 2.2129 0 2.4677-0.71564 2.1297-5.9825zm104.54 2.519c-0.36686-1.8964-2.094-2.2326-12.372-2.4087-14.022-0.24014-18.873 0.50034-18.873 2.881 0 1.3776 3.239 1.7318 15.836 1.7318 14.404 0 15.797-0.19922 15.409-2.2041zm19.936 0.56276c0.99459-0.9946-5.0251-2.4794-7.8397-1.9338-1.2096 0.23453-2.4466 1.1691-2.7488 2.0768-0.4111 1.2346 0.75837 1.5196 4.642 1.1312 2.8553-0.28553 5.5313-0.85891 5.9466-1.2742zm24.289 0.46962c1.176-0.74429-1.5361-1.2779-7.9032-1.5551-7.9985-0.34815-9.3155-0.14664-7.5321 1.1524 2.4883 1.8125 12.783 2.081 15.435 0.40264zm-115.32-1.8211c1.2054-0.17691 3.2891-2.1263 4.6304-4.3321l2.4389-4.0104-3.445 0.007c-1.8948 0.004-5.5704 0.59726-8.1681 1.3187-3.6981 1.027-4.723 1.9366-4.723 4.1912 0 3.7577 1.0307 4.6643 4.3544 3.8301 1.4965-0.3756 3.7071-0.82766 4.9125-1.0046v0.00003zm95.552-1.5519c-0.65502-3.4265-6.4337-6.7906-11.665-6.7906-2.0206 0-2.5518 0.66657-2.2445 2.8169 0.31138 2.1794 1.4858 2.992 5.1895 3.5906 2.6329 0.42554 5.4384 1.425 6.2344 2.221 2.3162 2.3162 3.16 1.6922 2.4852-1.8379zm-16.026-1.7527c0-1.1078-1.3023-1.9942-3.1487-2.1431l-3.1487-0.25386 3.1487 1.0729 3.1487 1.0729-3.4636 0.12554c-1.905 0.0691-3.4636 0.72996-3.4636 1.4687 0 0.73872 1.5586 1.1638 3.4636 0.94461 2.062-0.23726 3.4636-1.163 3.4636-2.2877zm-7.6219-2.1738c1.0992-2.8646-0.81364-3.6507-8.4232-3.4613-3.644 0.0907-11.018 0.26217-16.386 0.38104-7.0585 0.15628-9.7609 0.66943-9.7609 1.8534 0 3.4561 2.799 4.0201 18.087 3.645 13.057-0.32035 15.835-0.72789 16.483-2.4182zm44.362 1.5441c0.24773-0.75297-2.8779-1.2595-7.7722-1.2595-7.8802 0-9.2212 0.43475-7.292 2.364 1.3297 1.3297 14.583 0.35798 15.064-1.1045zm86.289 0.10082c0.21952-0.63726-4.4184-1.3467-10.306-1.5766-5.888-0.22987-14.39-1.008-18.892-1.7293-4.5026-0.72122-9.7452-1.5562-11.65-1.8555-1.905-0.29929-3.4636-0.002-3.4636 0.65983 0 0.6622 1.5586 1.5337 3.4636 1.9368 1.905 0.40302 4.8805 1.0588 6.6122 1.4572 3.5881 0.82555 25.363 2.5172 30.458 2.3663 1.8586-0.0551 3.5589-0.6215 3.7784-1.2588zm20.448 1.0239c1.0957-0.42047 1.9922-1.6146 1.9922-2.6537 0-1.2053-0.72124-1.6124-1.9922-1.1247-1.0957 0.42047-5.3464 0.76449-9.4461 0.76449-5.786 0-7.4538 0.42272-7.4538 1.8892s1.6679 1.8892 7.4538 1.8892c4.0996 0 8.3504-0.34402 9.4461-0.76448zm-122.07-5.5329c2.0781-1.3763 3.3202-2.5061 2.7602-2.5106-0.56002-0.005-4.8345-0.60042-9.4989-1.3241-5.3851-0.83553-9.6107-0.88505-11.577-0.13567l-3.0958 1.1801 3.7784 0.85261c2.0781 0.46893 5.7621 1.6084 8.1866 2.5322 5.8035 2.2113 5.147 2.2526 9.4461-0.59454zm3.7784 1.2595c-0.42812-0.69271-1.0283-1.2595-1.3338-1.2595-0.30547 0-0.5554 0.56677-0.5554 1.2595 0 0.69271 0.60021 1.2595 1.3338 1.2595s0.98352-0.56677 0.5554-1.2595zm-72.42-1.8892c-0.86235-1.0391-2.1736-1.8892-2.9139-1.8892-0.74029 0-0.24582 0.83212 1.0988 1.8492 3.1594 2.3896 3.7763 2.4032 1.8151 0.0401v-0.00004zm45.656 1.0551c-0.86588-0.34939-2.2828-0.34939-3.1487 0-0.86588 0.3494-0.15743 0.63526 1.5744 0.63526s2.4402-0.28586 1.5743-0.63526zm79.032-0.35102c0-0.65183-0.56676-1.5354-1.2595-1.9635-0.69271-0.42812-1.2595 0.10519-1.2595 1.1851 0 1.08 0.56677 1.9636 1.2595 1.9636 0.69271 0 1.2595-0.53332 1.2595-1.1852zm41.738-1.3285c-2.0851-1.7702-4.7978-2.5242-9.0808-2.5242-8.9187 0-29.997-3.5079-45.882-7.6358-18.598-4.8329-49.513-6.4617-56.212-2.9616-5.5708 2.9109-17.958 2.9778-23.67 0.12801-3.0318-1.5125-7.4703-2.1254-15.392-2.1254-9.7671 0-11.324-0.30868-12.704-2.519-2.0038-3.2086-6.2301-3.2306-9.1109-0.0474-3.0449 3.3646-8.1343 4.7449-21.139 5.7333-6.0612 0.46068-11.02 1.2268-11.02 1.7024 0 0.47566 2.2065 0.65441 4.9033 0.39722 5.864-0.55922 21.66 1.7319 22.699 3.2925 0.40453 0.60723 2.5106 1.7108 4.6801 2.4525 3.5664 1.2192 4.0742 1.0639 5.2968-1.6193 2.0054-4.4014 9.6478-5.9999 24.061-5.0328 18.505 1.2417 24.898 1.2741 37.858 0.19195 13.359-1.1154 36.772 1.3044 52.268 5.402 16.232 4.2923 33.345 7.0176 46.601 7.4212l8.8163 0.26845-2.9733-2.5242zm-193.82-0.82852c10.924-1.1858 8.6856-3.1079-3.1348-2.6912-9.0048 0.31744-10.437 0.6798-10.831 2.7407-0.38599 2.019 0.0838 2.2521 3.1348 1.5558 1.9738-0.45049 6.8477-1.1728 10.831-1.6052zm-34.321-1.4438c0-1.2469 0.52862-2.8055 1.1747-3.4636 0.72802-0.74154 0.60829-1.9327-0.31487-3.1327-1.1748-1.5271-3.2194-1.7932-9.6762-1.2595-10.114 0.83612-8.141 2.8623 2.7879 2.8623 4.889 0 6.9739 0.39902 5.863 1.1221-0.94808 0.61718-4.6969 1.0204-8.3306 0.896-3.6338-0.12438-6.993 0.15998-7.4649 0.63191-1.7806 1.7806 4.2263 4.5319 9.9785 4.5704 4.9361 0.0331 5.9825-0.35647 5.9825-2.227zm99.883-0.54965c-9.0378-2.7034-25.268-2.909-31.282-0.39625-2.4022 1.0037-4.3673 1.9956-4.3669 2.2041 0.00046 0.20853 9.6666 0.37914 21.48 0.37914h21.479l-7.3112-2.187zm44.327 1.5572c0.42812-0.69271-0.38858-1.2595-1.8149-1.2595s-2.5933 0.56676-2.5933 1.2595c0 0.69271 0.8167 1.2595 1.8149 1.2595 0.99819 0 2.1652-0.56677 2.5933-1.2595zm-10.391-2.0936c-0.86589-0.3494-2.2828-0.3494-3.1487 0-0.86589 0.34939-0.15743 0.63526 1.5744 0.63526s2.4402-0.28587 1.5743-0.63526zm28.155-2.6032c-0.41851-0.41852-0.71619 0.32536-0.6615 1.6531 0.0605 1.4672 0.35888 1.7657 0.76093 0.76093 0.36382-0.90918 0.31908-1.9955-0.0994-2.414h-0.00003zm-144.97 1.0097c1.6833-0.6623 0.3688-0.94629-3.9627-0.85608-3.5649 0.0742-6.2236 0.56006-5.9082 1.0796 0.73014 1.2027 6.5826 1.0702 9.8708-0.22351zm30.311-1.6316c-3.3721-1.8871-24.246-1.8776-26.137 0.012-1.3216 1.3209-0.34416 1.4883 5.2889 0.90577 3.8006-0.39302 9.744-0.2356 13.208 0.34983 7.2295 1.222 10.977 0.60015 7.6401-1.2675v-0.00006zm59.009 1.7064c0.83789-1.3557-10.909-3.6679-22.253-4.3802-6.66-0.41816-8.5015-0.15597-8.5015 1.2104 0 1.3283 2.3275 1.7653 9.7609 1.8327 5.3685 0.0487 10.894 0.57562 12.28 1.171 3.3488 1.439 7.8736 1.5253 8.7137 0.16609zm52.371-0.64785c0-2.2054-13.635-3.607-30.671-3.1528-9.6724 0.25787-12.151 0.69951-12.151 2.165 0 1.5189 1.8183 1.7273 10.391 1.1909 5.7149-0.35762 14.358-0.24703 19.207 0.24577 4.849 0.49279 9.8082 0.98516 11.02 1.0942 1.2122 0.109 2.2041-0.58539 2.2041-1.5431zm96.574 0.0474c0.42033-0.42034 0.0644-1.6076-0.79112-2.6384-2.0214-2.4356-18.263-2.4859-22.734-0.0703-3.2509 1.7566-2.9558 2.0967 3.1487 3.627 3.2395 0.81215 19.373 0.085 20.376-0.91837v-0.00002zm-243.92-3.43c0-0.73359-0.56677-0.98352-1.2595-0.5554-0.69271 0.42812-1.2595 1.0283-1.2595 1.3338 0 0.30548 0.56676 0.55541 1.2595 0.55541 0.69271 0 1.2595-0.60021 1.2595-1.3338zm-26.948-5.8819c-0.41852-0.41851-0.71618 0.32537-0.6615 1.6531 0.0605 1.4672 0.35888 1.7656 0.76093 0.76093 0.36382-0.90919 0.31909-1.9955-0.0994-2.414h-0.00003zm3.7784 0c-1.2803-1.2803-2.3366 0.64724-1.2862 2.3469 0.79351 1.2839 1.0902 1.2849 1.5168 0.005 0.29169-0.87507 0.18792-1.9334-0.23059-2.352v0.00008zm6.7959 2.1778c0-0.69271-0.60022-1.2595-1.3338-1.2595-0.73359 0-0.98352 0.56677-0.5554 1.2595 0.42812 0.69271 1.0283 1.2595 1.3338 1.2595 0.30547 0 0.5554-0.56676 0.5554-1.2595zm21.877-0.10791c7.0906-1.9688 4.0067-3.8758-5.5317-3.4206-10.466 0.49948-11.904 4.0804-1.8613 4.6349 1.3854 0.0765 4.7123-0.46993 7.393-1.2143zm-35.5-2.6839c-0.90375-0.90375-1.4904-0.97812-1.4904-0.18892 0 1.6811 1.4895 3.1706 2.33 2.33 0.3579-0.3579-0.0199-1.3214-0.83966-2.1411zm44.659-1.9312c-0.42937-2.5977-0.78691-5.7525-0.79453-7.0108-0.0101-1.7502-0.82765-2.1941-3.4774-1.8892-4.875 0.56093-5.183 4.794-0.701 9.6338 4.7215 5.0984 5.908 4.9233 4.973-0.73381zm77.279 2.8338c0-1.0391-0.56677-1.8892-1.2595-1.8892-0.69271 0-1.2595 0.85015-1.2595 1.8892 0 1.0391 0.56676 1.8892 1.2595 1.8892 0.69271 0 1.2595-0.85015 1.2595-1.8892zm2.7498-0.90262c-0.90375-0.90375-1.4904-0.97812-1.4904-0.18892 0 1.6811 1.4895 3.1706 2.33 2.33 0.35791-0.3579-0.0199-1.3214-0.83965-2.1411zm3.049-0.64548c-0.41852-0.41852-0.71619 0.32536-0.6615 1.6531 0.0605 1.4672 0.35887 1.7657 0.76092 0.76093 0.36383-0.90918 0.31909-1.9955-0.0994-2.414h-0.00002zm-13.854-1.2595c-0.41852-0.41851-0.71619 0.32537-0.6615 1.6531 0.0605 1.4672 0.35888 1.7657 0.76093 0.76094 0.36382-0.90919 0.31908-1.9955-0.0994-2.414h-0.00003zm4.277 2.1778c0-0.69272-0.56676-1.2595-1.2595-1.2595-0.69271 0-1.2595 0.56676-1.2595 1.2595 0 0.69271 0.56676 1.2595 1.2595 1.2595 0.69272 0 1.2595-0.56676 1.2595-1.2595zm13.854 0c0-0.69272-0.60022-1.2595-1.3338-1.2595-0.7336 0-0.98353 0.56676-0.55541 1.2595 0.42812 0.69271 1.0283 1.2595 1.3338 1.2595 0.30548 0 0.55541-0.56676 0.55541-1.2595zm131.3 0.37062c-1.5586-0.3002-4.109-0.3002-5.6676 0s-0.28338 0.54582 2.8338 0.54582 4.3924-0.24562 2.8338-0.54582zm-18.577-2.3482c-7.8943-2.1967-10.221-2.15-4.4082 0.0883 2.4245 0.93367 5.8251 1.69 7.5569 1.6808 1.8861-0.0101 0.62357-0.71944-3.1487-1.7691v0.00002zm-224.27-0.51024c4.3031-1.636 4.0947-4.5215-0.44068-6.1025-4.0639-1.4167-5.145-0.90395-5.145 2.4402 0 1.2355-0.99184 2.8241-2.2041 3.5302-1.8935 1.1029-1.7276 1.2892 1.1775 1.3221 1.8599 0.0211 4.8354-0.51444 6.6122-1.19zm71.216-5.2738c-0.94661-7.3788-4.334-11.131-10.05-11.131-5.6814 0-8.9748 3.6426-9.7244 10.755-0.54237 5.1468-0.3652 5.9704 1.0055 4.6743 0.91513-0.86537 2.2755-3.4158 3.0231-5.6676 1.091-3.2865 1.9579-4.0268 4.3943-3.7522 3.8893 0.43829 4.2586 0.86453 4.5634 5.2677 0.34201 4.94 1.405 6.3553 4.7732 6.3553 2.6983 0 2.8046-0.34299 2.0144-6.502zm186.77 4.4793c12.293-2.2562 16.817-4.8478 15.532-8.8973-0.81573-2.5702-6.9757-5.8301-13.815-7.3111-7.5564-1.6363-28.197-0.87866-36.243 1.3304-8.3 2.2788-15.429 6.269-14.342 8.0276 1.8553 3.002 11.945 6.0495 23.151 6.9926 3.0156 0.2538 5.8022 0.78075 6.1924 1.171 1.2403 1.2403 8.1412 0.77619 19.525-1.3132zm-150.15-0.33546c4.2089-0.20992 8.5453-3.3563 6.853-4.9723-0.69272-0.66149-2.4644-1.5657-3.9372-2.0093-2.0182-0.60796-2.8422-0.17755-3.3456 1.7476-0.36738 1.4048-1.6795 2.5543-2.9158 2.5543-2.1317 0-2.1342-0.0831-0.0494-1.6076 2.7485-2.0097 1.4961-5.9493-1.8913-5.9493-3.056 0-4.3765 3.2194-2.3314 5.6837 1.2673 1.527 1.177 1.8732-0.48884 1.8732-1.2038 0-2.0434-1.035-2.0434-2.519 0-2.939-2.2994-3.2484-5.6942-0.76603-4.436 3.2436 1.4934 6.948 10.102 6.3116 1.3854-0.10242 3.9692-0.25855 5.7418-0.34695h0.00002zm-115.96-3.31c0-2.309-0.67171-3.1487-2.519-3.1487-1.8472 0-2.519 0.83965-2.519 3.1487s0.67172 3.1487 2.519 3.1487c1.8472 0 2.519-0.83965 2.519-3.1487zm81.256-8.1252c-1.0158-3.2006-5.5664-6.3469-11.071-7.6548-4.0002-0.95042-4.0083-0.96699-0.53564-1.094 5.2113-0.19053 10.912 3.2688 12.893 7.8243 1.5488 3.5611 1.7504 3.6793 1.7942 1.052 0.0288-1.7332-1.7252-4.7343-4.2329-7.242-3.4582-3.4582-5.2624-4.2822-9.3758-4.2822-6.1295 0-12.186 4.3847-10.854 7.8573 0.75343 1.9634 1.1054 1.9946 3.5088 0.31117 4.0721-2.8522 10.068-2.3268 13.892 1.2174 1.8329 1.6987 3.3326 3.7768 3.3326 4.6181 0 0.84124 0.33513 1.1944 0.74474 0.78479 0.40959-0.4096 0.36662-1.9361-0.0956-3.3922h0.00007zm-19.256-5.8218c1.1958-1.2519 2.5195-1.9308 2.9417-1.5086 0.42217 0.42218-0.55618 1.4465-2.1741 2.2762-2.8122 1.4422-2.846 1.4085-0.7676-0.76759zm-70.816 6.4684c0-1.0129-1.0716-1.7302-2.4317-1.6278-1.3374 0.10075-2.1484 0.64153-1.8022 1.2018 0.34623 0.56021 1.1571 0.69249 1.802 0.29396 0.64484-0.39854 1.1724-0.1244 1.1724 0.60919s0.28338 1.3338 0.62973 1.3338c0.34636 0 0.62974-0.81493 0.62974-1.8109zm3.7784-0.0783c0-1.0391-0.56676-1.8892-1.2595-1.8892-0.69271 0-1.2595 0.85014-1.2595 1.8892s0.56676 1.8892 1.2595 1.8892c0.69272 0 1.2595-0.85015 1.2595-1.8892zm2.0204-1.5481c-0.41852-0.41852-0.71618 0.32536-0.6615 1.6531 0.0605 1.4672 0.35888 1.7657 0.76093 0.76093 0.36382-0.90918 0.31909-1.9955-0.0994-2.414h-0.00003zm3.7784 0c-0.41852-0.41852-0.71619 0.32536-0.6615 1.6531 0.0605 1.4672 0.35888 1.7657 0.76093 0.76093 0.36382-0.90918 0.31908-1.9955-0.0994-2.414h-0.00003zm2.519 0c-0.41852-0.41852-0.71618 0.32536-0.6615 1.6531 0.0605 1.4672 0.35888 1.7657 0.76093 0.76093 0.36382-0.90918 0.31909-1.9955-0.0994-2.414h-0.00003zm24.429 0.2143c0-1.08-0.57601-1.6076-1.28-1.1724-0.70401 0.4351-0.95395 1.3187-0.55541 1.9635 1.0797 1.747 1.8354 1.4212 1.8354-0.79109zm79.35-1.81c0-0.69271-0.56677-1.2595-1.2595-1.2595-0.69271 0-1.2595 0.56676-1.2595 1.2595 0 0.69271 0.56677 1.2595 1.2595 1.2595 0.69271 0 1.2595-0.56677 1.2595-1.2595zm3.7784 0c0-0.69271-0.56676-1.2595-1.2595-1.2595-0.69271 0-1.2595 0.56676-1.2595 1.2595 0 0.69271 0.56677 1.2595 1.2595 1.2595 0.69271 0 1.2595-0.56677 1.2595-1.2595zm3.1487 0c-0.42812-0.69271-1.0283-1.2595-1.3338-1.2595-0.30547 0-0.5554 0.56676-0.5554 1.2595 0 0.69271 0.60022 1.2595 1.3338 1.2595 0.73359 0 0.98352-0.56677 0.5554-1.2595zm-109.26-1.9549c3.414-1.0518 1.2617-2.9414-4.8413-4.2502-6.5543-1.4056-13.106 0.13075-13.106 3.0734 0 2.3156 11.75 3.0861 17.948 1.1768zm29.129-0.44254c0.95463-0.60466 1.3463-1.7295 0.87027-2.4997-1.466-2.3721-14.571-1.317-14.571 1.1732 0 2.1528 10.753 3.1938 13.701 1.3265zm85.878-3.3662c2.3877-2.877-0.42194-4.2692-8.6639-4.2929-6.6485-0.0191-11.567 1.5589-11.567 3.7111 0 2.9759 17.819 3.4883 20.231 0.58178zm-36.548-3.6221c-1.5906-1.6931-4.5616-3.4451-6.6023-3.8933-5.6632-1.2438-5.6987 0.31079-0.0457 2.0045 2.744 0.82214 5.7453 2.5439 6.6695 3.8261 0.92418 1.2822 1.9481 2.0635 2.2754 1.7362 0.32731-0.32731-0.70629-1.9804-2.2969-3.6735h-0.00004z"/>
  </g>
  <metadata>
    <rdf:RDF>
      <cc:Work>
        <dc:format>image/svg+xml</dc:format>
        <dc:type rdf:resource="http://purl.org/dc/dcmitype/StillImage"/>
        <cc:license rdf:resource="http://creativecommons.org/licenses/publicdomain/"/>
        <dc:publisher>
          <cc:Agent rdf:about="http://openclipart.org/">
            <dc:title>Openclipart</dc:title>
          </cc:Agent>
        </dc:publisher>
        <dc:title>Telegraph Key</dc:title>
        <dc:date>2013-11-08T18:31:26</dc:date>
        <dc:description>Illustration taken from "THE RADIO AMATEUR'S HAND BOOK" 1922.</dc:description>
        <dc:source>http://openclipart.org/detail/188507/telegraph-key-by-damauk-188507</dc:source>
        <dc:creator>
          <cc:Agent>
            <dc:title>damauk</dc:title>
          </cc:Agent>
        </dc:creator>
        <dc:subject>
          <rdf:Bag>
            <rdf:li>radio</rdf:li>
            <rdf:li>wireless</rdf:li>
            <rdf:li>telegraph</rdf:li>
            <rdf:li>morse code</rdf:li>
          </rdf:Bag>
        </dc:subject>
      </cc:Work>
      <cc:License rdf:about="http://creativecommons.org/licenses/publicdomain/">
        <cc:permits rdf:resource="http://creativecommons.org/ns#Reproduction"/>
        <cc:permits rdf:resource="http://creativecommons.org/ns#Distribution"/>
        <cc:permits rdf:resource="http://creativecommons.org/ns#DerivativeWorks"/>
      </cc:License>
    </rdf:RDF>
  </metadata>
</svg>
